<svg width="220" height="42" viewBox="0 0 220 42" fill="none" xmlns="http://www.w3.org/2000/svg">
<g clip-path="url(#clip0_24_532)">
<path d="M15.4798 22.2336H0V12.4825C0 5.59894 5.59894 0 12.4825 0C19.366 0 24.9649 5.59894 24.9649 12.4825V12.7809C24.9649 13.6762 24.2383 14.4028 23.343 14.4028C22.4477 14.4028 21.721 13.6762 21.721 12.7809V12.4825C21.721 7.38956 17.5753 3.24388 12.4825 3.24388C7.38956 3.24388 3.24388 7.38956 3.24388 12.4825V18.9897H15.4798C16.3751 18.9897 17.1017 19.7163 17.1017 20.6116C17.1017 21.5069 16.3751 22.2336 15.4798 22.2336Z" fill="#008C8C"/>
<path d="M12.5214 41.2168C5.59894 41.2168 0 35.6179 0 28.7344V20.6052H3.24388V28.7344C3.24388 33.7884 7.32468 37.9081 12.3657 37.973C12.3851 37.96 12.3981 37.9405 12.4111 37.9211C12.45 37.8562 12.7549 37.2463 12.171 35.3714C10.361 29.5973 10.8411 22.1428 10.8605 21.8314L14.0979 22.052C14.0979 22.1234 13.6438 29.221 15.2657 34.4047C16.0053 36.7598 15.9275 38.5828 15.0386 39.8285C14.325 40.8276 13.235 41.1974 12.5214 41.2168ZM12.4046 37.973H12.463C12.463 37.973 12.4241 37.973 12.4046 37.973Z" fill="#008C8C"/>
<path d="M26.4571 18.9896H24.9584V17.4974C24.9584 16.6021 24.2318 15.8755 23.3365 15.8755C22.4412 15.8755 21.7145 16.6021 21.7145 17.4974V18.9896H20.2159C19.3206 18.9896 18.5939 19.7162 18.5939 20.6116C18.5939 21.5069 19.3206 22.2335 20.2159 22.2335H21.7145V23.7257C21.7145 24.621 22.4412 25.3476 23.3365 25.3476C24.2318 25.3476 24.9584 24.621 24.9584 23.7257V22.2335H26.4571C27.3524 22.2335 28.079 21.5069 28.079 20.6116C28.079 19.7162 27.3524 18.9896 26.4571 18.9896Z" fill="#86BD55"/>
<path d="M53.6473 8.31104C56.2035 8.31104 58.1239 8.89493 59.4214 10.0692C60.719 11.2435 61.3678 12.8265 61.3678 14.8183C61.3678 16.81 60.719 18.4774 59.4214 19.6906C58.1239 20.9038 56.197 21.5136 53.6473 21.5136H49.4108V30.1099H45.33V8.31104H53.6473ZM53.9263 17.9324C55.1071 17.9324 55.957 17.6988 56.463 17.2317C56.9691 16.7646 57.2286 15.9925 57.2286 14.9091C57.2286 13.8256 56.9691 13.112 56.45 12.6384C55.931 12.1648 55.0876 11.9247 53.9263 11.9247H49.4108V17.9324H53.9263Z" fill="#008C8C"/>
<path d="M73.2338 14.5393C76.867 14.5393 78.6836 16.6867 78.6836 20.9881V30.1099H74.726V21.2022C74.726 19.1456 73.7399 18.1205 71.7676 18.1205C70.6452 18.1205 69.7694 18.5228 69.1336 19.3208C68.4978 20.1188 68.1864 21.2866 68.1864 22.8242V30.1099H64.2288V8.31104H68.1864V18.3995C68.9779 15.8239 70.6582 14.5393 73.2338 14.5393Z" fill="#008C8C"/>
<path d="M94.0985 14.8506H98.0561V30.1098H94.0985V26.7751C93.1254 29.2015 91.3607 30.4212 88.8045 30.4212C86.6441 30.4212 84.9508 29.7011 83.7116 28.2543C82.479 26.814 81.8561 24.8937 81.8561 22.5062C81.8561 20.1187 82.453 18.1399 83.6468 16.6996C84.8405 15.2593 86.4949 14.5327 88.6164 14.5327C91.2764 14.5327 93.0994 15.7784 94.0985 18.2697V14.8441V14.8506ZM89.9853 26.84C91.4386 26.84 92.509 26.4897 93.1903 25.7825C93.878 25.0753 94.2153 23.9854 94.2153 22.5127C94.2153 21.0399 93.8715 19.9111 93.1903 19.1974C92.5026 18.4838 91.4321 18.1204 89.9853 18.1204C87.2215 18.1204 85.8461 19.5867 85.8461 22.5127C85.8461 25.4386 87.228 26.84 89.9853 26.84Z" fill="#008C8C"/>
<path d="M110.915 14.5976C111.765 14.5976 112.381 14.6689 112.751 14.8181V18.5551C112.212 18.3475 111.525 18.2437 110.694 18.2437C109.384 18.2437 108.352 18.6978 107.593 19.6126C106.834 20.5274 106.458 21.9157 106.458 23.7842V30.1033H102.5V14.8441H106.458V19.1714C106.996 16.1222 108.482 14.5911 110.908 14.5911L110.915 14.5976Z" fill="#008C8C"/>
<path d="M135.263 14.5393C138.793 14.5393 140.557 16.7062 140.557 21.0465V30.1099H136.6V21.2996C136.6 20.281 136.347 19.496 135.834 18.951C135.328 18.3995 134.595 18.127 133.641 18.127C131.254 18.127 130.06 19.9241 130.06 23.5119V30.1164H126.103V21.2087C126.103 19.1521 125.116 18.127 123.144 18.127C122.022 18.127 121.146 18.5293 120.51 19.3273C119.874 20.1253 119.563 21.2931 119.563 22.8307V30.1164H115.605V14.8572H119.563V18.406C120.354 15.8304 122.035 14.5458 124.61 14.5458C127.433 14.5458 129.158 15.8563 129.781 18.4709C130.754 15.8563 132.584 14.5458 135.263 14.5458V14.5393Z" fill="#008C8C"/>
<path d="M155.972 14.8506H159.93V30.1098H155.972V26.7751C154.999 29.2015 153.234 30.4212 150.678 30.4212C148.518 30.4212 146.825 29.7011 145.585 28.2543C144.353 26.814 143.73 24.8937 143.73 22.5062C143.73 20.1187 144.327 18.1399 145.52 16.6996C146.714 15.2593 148.369 14.5327 150.49 14.5327C153.15 14.5327 154.973 15.7784 155.972 18.2697V14.8441V14.8506ZM151.866 26.84C153.319 26.84 154.389 26.4897 155.07 25.7825C155.758 25.0753 156.096 23.9854 156.096 22.5127C156.096 21.0399 155.752 19.9111 155.07 19.1974C154.383 18.4838 153.312 18.1204 151.866 18.1204C149.102 18.1204 147.726 19.5867 147.726 22.5127C147.726 25.4386 149.108 26.84 151.866 26.84Z" fill="#008C8C"/>
<path d="M175.092 30.1099L170.232 22.9799L167.183 26.1589V30.1164H164.783V8.31104H167.183V24.1282L169.486 21.079L174.378 15.4735H177.46L171.789 21.3904L178.018 30.1099H175.092Z" fill="#86BD55"/>
<path d="M191.973 15.4735H194.373V30.1099H191.973V27.1191C190.831 29.3184 188.982 30.4213 186.432 30.4213C184.337 30.4213 182.644 29.7206 181.359 28.3193C180.074 26.9179 179.426 25.0754 179.426 22.7917C179.426 20.508 180.068 18.6655 181.359 17.2641C182.65 15.8628 184.337 15.1621 186.432 15.1621C188.989 15.1621 190.831 16.265 191.973 18.4644V15.4735ZM183.13 26.8985C183.961 27.7938 185.245 28.2349 186.99 28.2349C188.736 28.2349 190.02 27.7873 190.851 26.8985C191.681 26.0032 192.096 24.6342 192.096 22.7852C192.096 20.9362 191.681 19.5673 190.851 18.672C190.02 17.7767 188.736 17.3355 186.99 17.3355C185.245 17.3355 183.961 17.7832 183.13 18.672C182.3 19.5673 181.884 20.9362 181.884 22.7852C181.884 24.6342 182.3 26.0032 183.13 26.8985Z" fill="#86BD55"/>
<path d="M206.856 15.188C207.686 15.188 208.257 15.2594 208.569 15.4086V17.835C208.114 17.5885 207.44 17.4587 206.544 17.4587C205.072 17.4587 203.956 18.0296 203.197 19.1715C202.438 20.3133 202.061 21.7341 202.061 23.4404V30.1034H199.661V15.467H202.061V19.6386C202.704 16.6672 204.306 15.188 206.856 15.188Z" fill="#86BD55"/>
<path d="M220 17.6534H215.329V27.93H219.468V30.1099H216.51C215.433 30.1099 214.563 29.7855 213.908 29.1302C213.253 28.475 212.928 27.6121 212.928 26.5286V17.6534H209.626V15.4735H212.928V10.8672H215.329V15.4735H220V17.6534Z" fill="#86BD55"/>
</g>
<defs>
<clipPath id="clip0_24_532">
<rect width="220" height="41.2168" fill="white"/>
</clipPath>
</defs>
</svg>
