<svg width="55" height="80" viewBox="0 0 55 80" fill="none" xmlns="http://www.w3.org/2000/svg">
<g clip-path="url(#clip0_24_512)">
<path d="M30.043 36.8489H6.29607V24.2199C6.29607 14.3366 14.3366 6.29607 24.226 6.29607C34.1155 6.29607 42.1499 14.3366 42.1499 24.2199V24.7973C42.1499 26.5356 43.5565 27.9423 45.2948 27.9423C47.0332 27.9423 48.4398 26.5356 48.4398 24.7973V24.2199C48.4459 10.8661 37.5798 0 24.226 0C10.8722 0 0 10.8661 0 24.2199V55.774C0 69.1278 10.8661 80 24.2998 79.9939C25.688 79.957 27.8071 79.2322 29.1892 77.2973C30.9152 74.8833 31.0627 71.3391 29.6315 66.769C26.7568 57.5983 27.2297 45.344 27.3403 43.145H30.0369C31.7752 43.145 33.1818 41.7383 33.1818 40C33.1818 38.2617 31.7752 36.855 30.0369 36.855L30.043 36.8489ZM23.6241 68.6609C24.7666 72.2973 24.1646 73.4828 24.0909 73.6057C24.0663 73.6487 24.0418 73.6855 23.9988 73.7039C14.2138 73.5872 6.28993 65.5897 6.28993 55.7801V43.1511H21.0319C20.8784 46.3636 20.5221 58.7776 23.6179 68.6609H23.6241Z" fill="#008C8C"/>
<path d="M51.3514 36.8487H48.446V33.9494C48.446 32.2111 47.0394 30.8044 45.301 30.8044C43.5627 30.8044 42.1561 32.2111 42.1561 33.9494V36.8487H39.2507C37.5123 36.8487 36.1057 38.2553 36.1057 39.9936C36.1057 41.732 37.5123 43.1386 39.2507 43.1386H42.1561V46.0379C42.1561 47.7762 43.5627 49.1828 45.301 49.1828C47.0394 49.1828 48.446 47.7762 48.446 46.0379V43.1386H51.3514C53.0897 43.1386 54.4964 41.732 54.4964 39.9936C54.4964 38.2553 53.0897 36.8487 51.3514 36.8487Z" fill="#86BD55"/>
</g>
<defs>
<clipPath id="clip0_24_512">
<rect width="54.5025" height="80" fill="white"/>
</clipPath>
</defs>
</svg>
